<svg width="1014" height="1014" viewBox="0 0 1014 1014" fill="none" xmlns="http://www.w3.org/2000/svg">
<g clip-path="url(#clip0_165_194)">
<path d="M508.742 165.21L508.676 167.369C507.25 169.078 507.875 168.847 507.662 171.612C507.38 174.321 508.136 176.049 507.973 178.061L507.398 179.088C504.667 183.224 495.952 213.324 493.793 220.335L456.589 340.111L443.964 382.021C443.088 384.884 439.982 395.945 439.022 398.017C438.698 397.348 438.944 397.581 438.318 397.283C437.688 399.075 437.538 400.429 436.27 401.563L435.572 401.23C436.271 399.616 437.1 398.399 436.457 396.794C438.178 388.432 446.26 368.262 446.079 361.352C446.133 360.138 448.933 350.703 449.261 349.759C454.903 333.503 504.572 165.498 508.077 163.749L508.742 165.21Z" fill="#C1C1C2"/>
<path d="M508.676 167.369L508.742 165.21C514.633 179.887 518.832 196.986 523.762 212.176C542.84 270.956 559.306 330.574 578.721 389.224C580.101 393.39 585.054 397.698 585.566 399.393C582.024 398.009 579.343 393.468 578.078 389.965C567.483 360.592 559.565 330.323 548.885 300.936C546.448 294.228 545.58 285.612 543.285 278.701C531.123 242.066 521.194 203.836 508.676 167.369Z" fill="#A0A0A1"/>
<path d="M507.973 178.061C508.136 176.049 507.38 174.321 507.662 171.612L509.899 179.873L508.793 180.261L507.973 178.061Z" fill="#373737"/>
<path d="M507.398 179.088L507.973 178.061L508.793 180.261C509.47 183.44 510.179 186.628 510.754 189.826L509.732 190.996C509.529 190.415 507.766 180.778 507.398 179.088Z" fill="#E2E2E2"/>
<path d="M439.022 398.017C439.982 395.945 443.088 384.884 443.964 382.021L456.589 340.111L493.793 220.335C495.952 213.324 504.667 183.224 507.398 179.088C507.766 180.778 509.529 190.415 509.732 190.996C512.352 213.399 511.365 245.442 511.525 268.697L512.518 396.062C512.264 404.653 513.385 415.263 512.967 422.87L513.068 429.828L513.01 429.544L513.712 431.183L513.353 431.466L513.165 430.959L513.797 430.449C514.007 428.009 513.906 425.27 513.885 422.799C513.645 413.591 514.14 404.265 513.887 394.995L515.472 226.387L516.171 220.168C525.855 248.453 529.83 279.025 538.069 307.784C540.01 314.559 541.283 322.167 543.5 328.805C551.62 353.122 556.361 379.538 567.715 402.519C570.016 407.311 576.44 411.436 581.138 413.774C578.902 418.816 573.803 425.886 570.379 430.283C550.609 455.671 531.053 482.638 510.618 507.384C509.6 508.264 508.715 508.782 508.404 510.042C506.014 510.235 504.723 510.569 502.903 508.738C499.894 505.323 485.98 495.794 481.405 492.297C475.714 486.6 461.582 480.032 453.355 480.477C454.047 480.439 450.906 481.231 451.165 481.17C440.2 476.516 425.584 472.591 413.877 468.688C413.515 467.051 413.987 466.343 414.405 464.695L413.964 464.329L413.325 464.795C412.793 466.125 413.109 465.704 412.122 466.684L410.489 466.35L410.321 465.816C414.883 456.671 415.552 451.652 418.799 442.208C420.808 436.367 426.062 427.479 429.508 422.209L430.695 422.622C429.325 424.85 426.58 429.389 427.372 431.974C430.4 425.554 431.9 423.039 437.143 418.367C457.816 446.815 480.974 477.399 503.977 503.861C503.337 497.368 503.555 486.605 503.507 479.868L503.497 428.864L503.007 283.614C502.958 273.877 502.902 264.168 503.04 254.433C503.17 245.273 503.692 236.039 503.322 226.896C491.723 271.51 478.335 315.096 463.386 358.716C458.246 373.712 452.49 400.916 435.337 405.372C436.949 401.886 437.589 402.682 439.022 398.017Z" fill="url(#paint0_linear_165_194)"/>
<path d="M508.793 180.261L509.899 179.873L555.6 328.991L567.174 366.409C570.17 376.364 573.94 396.192 583.392 402.096C585.073 403.146 587.702 403.78 589.007 405.305C584.62 409.134 574.803 398.524 572.38 395.091L572.003 394.551C570.132 390.719 568.511 386.317 567.265 382.232C552.092 332.491 537.522 282.56 522.138 232.886C520.734 228.354 519.656 223.733 518.033 219.265L510.754 189.826C510.179 186.628 509.47 183.44 508.793 180.261Z" fill="black"/>
<path d="M509.732 190.996L510.754 189.826L518.033 219.265L517.448 219.303L515.888 217.517L515.513 217.836L516.01 217.624C514.965 219.259 515.228 224.35 515.472 226.387L513.887 394.995C513.558 397.549 513.316 399.652 513.162 402.249C512.977 400.295 512.823 397.967 512.518 396.062L511.525 268.697C511.365 245.442 512.352 213.399 509.732 190.996Z" fill="#F8F8F8"/>
<path d="M518.033 219.265C519.656 223.733 520.734 228.354 522.138 232.886C537.522 282.56 552.092 332.491 567.265 382.232C568.511 386.317 570.132 390.719 572.003 394.551L571.258 394.856C573.142 398.644 575.645 400.103 577.096 402.296C580.131 406.884 589.318 404.973 589.354 407.745C591.807 407.357 590.627 406.778 593.134 405.503L594.083 407.451C592.736 408.06 589.487 412.874 589.197 414.147C586.753 424.866 600.62 435.931 608.861 438.038C626.469 442.54 642.168 440.697 659.591 438.371C672.079 436.087 677.455 433.889 690.903 432.84C679.256 440.716 645.005 446.62 630.557 451.164C603.302 459.735 575.102 467.034 548.121 476.564C544.094 477.986 539.57 480.564 535.419 479.851C532.074 480.885 515.707 506.822 510.618 507.384C531.053 482.638 550.609 455.671 570.379 430.283C573.803 425.886 578.902 418.816 581.138 413.774C576.44 411.436 570.016 407.311 567.715 402.519C556.361 379.538 551.62 353.122 543.5 328.805C541.283 322.167 540.01 314.559 538.069 307.784C529.83 279.025 525.855 248.453 516.171 220.168L515.472 226.387C515.228 224.35 514.965 219.259 516.01 217.624L515.513 217.836L515.888 217.517L517.448 219.303L518.033 219.265Z" fill="#E2E2E2"/>
<path d="M428.32 404.257L431.327 403.529C432.63 404.206 433.471 404.647 434.718 405.471L435.337 405.372C452.49 400.916 458.246 373.712 463.386 358.716C478.335 315.096 491.723 271.51 503.322 226.896C503.692 236.039 503.17 245.273 503.04 254.433C502.902 264.168 502.958 273.878 503.007 283.615L503.497 428.865L503.507 479.868C503.555 486.605 503.337 497.368 503.977 503.861C480.974 477.399 457.816 446.815 437.143 418.367L435.774 416.676C435.508 416.407 434.307 415.421 434.196 415.438C430.273 415.801 424.982 417.362 421.148 417.082C400.945 415.608 379.753 417.175 359.67 415.885C350.719 411.648 334.68 416.01 328.06 413.477L328.28 413.111C333.608 412.432 345.549 413.053 351.627 412.863L351.606 412.01C368.038 411.634 384.844 412.125 401.253 411.923C407.272 411.849 425.457 412.39 430.472 410.802L430.256 410.07C425.661 406.299 424.063 406.504 418.233 406.33C417.084 405.504 387.379 405.616 383.136 405.434C391.913 402.854 417.087 405.715 428.32 404.257Z" fill="#F8F8F8"/>
<path d="M388.778 402.941C396.153 402.926 426.234 404.313 430.923 401.851C432.748 400.893 434.002 399.362 434.941 397.555C436.74 394.093 437.509 389.714 438.647 385.962L446.079 361.352C446.26 368.262 438.178 388.432 436.457 396.794C434.943 400.209 434.351 401.338 431.327 403.529L428.32 404.257C421.507 403.82 382.154 404.558 379.53 403.368C382.636 403.178 385.669 403.053 388.778 402.941Z" fill="#605F62"/>
<path d="M513.162 402.249C513.316 399.652 513.558 397.549 513.887 394.995C514.14 404.265 513.645 413.591 513.885 422.799L512.967 422.87C513.385 415.263 512.264 404.653 512.518 396.062C512.823 397.967 512.977 400.295 513.162 402.249Z" fill="#A0A0A1"/>
<path d="M436.457 396.794C437.1 398.399 436.271 399.616 435.572 401.23L436.27 401.563C437.538 400.429 437.688 399.075 438.318 397.283C438.944 397.581 438.698 397.348 439.022 398.017C437.589 402.682 436.949 401.886 435.337 405.372L434.718 405.471C433.471 404.647 432.63 404.206 431.327 403.529C434.351 401.338 434.943 400.209 436.457 396.794Z" fill="#E2E2E2"/>
<path d="M188.271 400.173C201.962 402.212 215.248 402.593 229.046 403.019C221.89 405.675 194.36 401.846 193.561 402.33C194.544 403.479 194.802 403.344 196.338 403.94L195.801 405.429C193.589 403.713 190.635 401.792 188.271 400.173Z" fill="#717174"/>
<path d="M593.134 405.503L749.048 405.045C759.491 405.012 812.257 405.871 818.536 403.591C817.181 402.424 814.462 402.302 812.706 402.313C796.035 402.416 779.298 402.998 762.629 403.022L633.161 402.797C628.251 402.789 594.476 403.228 592.104 402.36C596.568 401.839 610.346 402.19 615.508 402.188L665.05 402.22L791.925 401.683C803.234 401.558 814.684 401.84 825.965 401.583C818.91 405.944 811.618 411.775 805.008 416.89L777.613 438.139L683.944 512.022L654.302 535.259C648.73 539.672 641.727 545.668 636.084 549.693C636.637 547.997 638.468 546.003 639.876 544.919C681.206 513.094 721.447 479.624 762.572 447.602L790.402 426.265C799.289 419.457 808.995 412.741 816.06 404.127L808.696 408.238C804.003 405.935 797.93 411.715 792.009 411.435C791.627 411.799 791.278 412.032 791.08 412.457C787.985 414.218 785.461 415.759 781.877 416.317L780.84 415.752C782.759 415.045 788.135 413.451 789.311 412.256L788.397 411.743C790.761 411.121 790.448 411.475 791.555 409.859L791.268 408.974C790.003 408.272 788.753 407.988 787.314 407.984C770.214 407.942 752.986 408.047 735.897 408.037L633.034 407.931C627.97 407.946 596.943 408.519 594.083 407.451L593.134 405.503Z" fill="#373737"/>
<path d="M229.046 403.019C237.222 402.089 255.075 402.517 264.116 402.499L328.431 402.486L366.757 402.484C372.911 402.48 382.918 402.247 388.778 402.941C385.669 403.053 382.636 403.178 379.53 403.368C382.154 404.558 421.507 403.82 428.32 404.257C417.087 405.715 391.913 402.853 383.136 405.433C387.379 405.615 417.084 405.504 418.233 406.33C412.162 406.925 394.018 406.316 387.016 406.294L324.423 406.366L249.683 406.686C240.571 406.75 215.19 407.283 207.389 406.003C204.49 403.931 200.406 406.042 196.338 403.94C194.802 403.344 194.544 403.479 193.561 402.33C194.36 401.846 221.89 405.675 229.046 403.019Z" fill="url(#paint1_linear_165_194)"/>
<path d="M196.338 403.94C200.406 406.042 204.49 403.931 207.389 406.003C209.471 408.405 212.549 410.588 215.125 412.532C224.409 419.542 233.335 426.938 242.336 434.303L341.85 515.504C353.778 525.286 365.947 534.597 377.331 545.02C378.204 545.819 379.717 546.651 380.866 546.974C379.917 547.505 378.257 548.617 377.248 548.574C372.208 548.361 366.067 541.591 362.225 538.45L338.954 519.764L245.931 444.777C229.601 431.514 211.975 418.577 195.801 405.429L196.338 403.94Z" fill="#A0A0A1"/>
<path d="M808.696 408.238L816.06 404.127C808.995 412.741 799.289 419.457 790.402 426.265L762.572 447.602C721.447 479.624 681.206 513.094 639.876 544.919C638.468 546.003 636.637 547.997 636.084 549.693C635.35 551.146 635.41 551.045 635.525 552.682C635.808 558.625 641.672 574.694 643.546 581.564C657.344 632.157 675.032 681.705 688.852 732.244C689.61 735.018 690.809 738.13 689.307 740.577C682.384 720.849 676.77 700.395 670.695 680.376L643.16 589.066C641.366 582.924 632.931 557.681 633.198 553.02C633.899 550.121 633.966 548.648 633.31 545.749C639.502 544.204 737.486 464.266 752.225 452.864C755.768 450.123 778.018 433.004 781.953 429.545L781.727 429.391L777.831 431.409C788.438 422.127 798.714 416.591 808.696 408.238Z" fill="#E2E2E2"/>
<path d="M207.389 406.003C215.19 407.283 240.571 406.75 249.683 406.686L324.423 406.366L387.016 406.294C394.018 406.316 412.162 406.925 418.233 406.33C424.063 406.504 425.661 406.299 430.256 410.07L430.472 410.802C425.457 412.39 407.272 411.849 401.253 411.923C384.844 412.125 368.038 411.634 351.606 412.01C331.378 412.034 311.06 412.469 290.83 412.865C287.177 412.937 283.491 413.059 279.849 413.35C277.635 413.463 275.98 413.475 273.797 413.956C272.201 414.152 271.64 414.124 270.184 414.873C269.429 417.299 271.537 417.066 270.475 419.095C269.664 419.215 268.846 419.344 268.034 419.452C259.117 416.617 249.736 417.585 240.437 417.937C242.499 418.866 245.95 420.547 247.988 421.206C275.602 432.167 305.022 442.153 333.15 451.903L407.498 477.793L450.208 492.384C467.922 498.544 484.627 504.475 502.903 508.738C504.723 510.569 506.014 510.235 508.404 510.042C509.711 509.715 509.873 509.333 510.987 508.408L511.563 508.528L510.936 509.55C512.042 509.912 512.908 509.285 513.985 508.706C516.009 509.763 519.279 509.056 521.291 508.142C533.782 506.613 565.047 494.873 577.487 490.561C596.555 483.951 615.991 477.558 635.136 471.11C635.256 471.086 635.377 471.062 635.497 471.038C685.007 453.758 735.622 438.388 783.65 417.27C785.589 416.417 791.408 414.453 792.319 413.058L791.08 412.457C791.278 412.032 791.627 411.799 792.009 411.435C797.93 411.715 804.003 405.935 808.696 408.238C798.714 416.591 788.438 422.127 777.831 431.409L781.727 429.391L781.953 429.545C778.018 433.004 755.768 450.123 752.225 452.864C737.486 464.266 639.502 544.204 633.31 545.749C633.881 542.835 643.437 532.57 645.792 530.146C659.828 518.248 674.371 507.225 688.573 495.632C703.345 483.573 717.794 471.413 732.775 459.544C737.607 456.708 760.043 436.911 761.946 432.792C754.542 427.677 692.713 481.83 685.205 488.02L654.386 512.929C645.911 519.849 637.944 525.868 631.05 534.618C629.381 537.075 625.976 541.042 623.757 543.003C619.335 544.231 566.226 526.971 557.012 524.388C543.198 520.515 527.072 515.024 512.18 511.994L511.914 512.248L514.469 513.529L513.568 514.724C515.951 519.447 522.441 527.433 525.63 532.186C535.654 547.129 546.678 561.239 557.311 575.687L658.664 713.547C662.526 718.837 683.349 749.432 686.717 750.871L687.51 750.373C688.335 746.592 686.058 741.434 684.712 737.739C675.966 712.402 668.746 686.587 660.422 661.115C655.016 644.57 649.66 627.849 644.984 611.087C640.695 595.707 635.522 580.379 631.767 564.881C630.85 560.43 630.494 559.187 631.963 554.769L633.198 553.02C632.931 557.681 641.366 582.924 643.16 589.066L670.695 680.376C676.77 700.395 682.384 720.849 689.307 740.577C689.342 742.896 696.765 768.937 697.891 770.603L696.128 769.373L695.677 768.968C690.933 764.635 691.721 762.768 688.863 758.7L688.57 759.814C686.271 758.509 649.966 708.154 644.963 701.47L547.544 571.007C536.07 555.455 524.674 539.913 513.913 523.855C512.173 521.259 510.522 519.297 509.341 516.35C509.798 514.835 509.835 515.046 510.783 513.696L510.101 513.263C509.542 514.028 508.55 516.932 509.019 517.663C541.101 567.694 578.85 614.05 613.422 662.404C622.294 674.813 633.016 686.504 641.947 699.02C651.894 712.96 662.086 727.417 672.46 741.011C676.383 746.152 691.469 767.547 695.438 770.179C696.435 771.414 697.85 774.097 698.687 775.574C688.172 768.897 676.964 759.978 665.808 752.514C625.534 725.568 586.845 694.927 547.595 666.561C541.592 662.222 515.837 642.322 511.896 641.019L510.327 639.359L510.395 638.743C521.535 637.857 533.54 647.81 542.028 654.123C572.808 677.015 603.337 700.293 634.357 722.868C638.509 725.889 652.497 736.57 656.665 737.278C656.677 734.629 646.959 723.596 644.371 721.688C615.335 700.29 587.437 677.235 558.357 655.891C542.307 644.111 529.341 629.85 508.487 629.105L507.46 555.386C507.381 549.376 507.651 525.362 506.958 520.806C506.622 521.93 506.731 536.903 506.726 538.93L506.366 605.884C506.345 609.594 506.722 626.725 506.219 629.122C504.498 630.247 501.105 629.306 498.377 629.972C482.694 633.797 473.872 642.725 461.359 652.173C448.9 661.579 435.632 670.501 423.443 680.534C414.298 688.06 403.465 695.198 394.121 702.616C389.097 706.728 382.318 710.256 377.503 714.507C365.397 725.194 351.033 736.876 340.256 748.779C356.014 739.752 374.741 725.446 389.336 714.518L454.149 666.206C465.027 658.243 476.6 648.861 488.213 642.102C492.687 639.498 499.493 638.763 504.65 638.667C489.88 648.719 476.833 658.768 462.517 669.245L361.795 743.433L329.562 766.479C325.219 769.578 318.603 774.91 314.432 777.403L317.907 763.767C320.414 754.824 323.673 745.886 326.303 736.975L357.472 632.153L369.947 590.738C373.954 577.36 376.868 566.368 382.648 553.642L384.17 551.497C387.519 551.498 388.143 565.308 387.44 567.696C372.853 617.289 358.961 667.212 343.369 716.507C341.061 723.804 339.07 731.49 336.495 738.535L333.772 745.336C335.719 743.557 336.643 742.027 337.547 739.504C345.018 726.586 354.192 713.558 362.618 701.244L398.998 648.386C423.006 613.762 445.901 578.478 472.505 545.72C480.722 535.602 488.579 523.062 499.348 515.623C500.616 514.747 502.353 514.305 502.8 512.931C501.809 512.757 493.942 515.697 492.046 516.161C461.444 523.639 431.92 534.31 401.657 542.9C398.783 543.716 390.654 546.421 387.964 546.489C388.481 542.799 387.006 539.841 384.876 536.849C381.601 532.936 377.425 526.027 373.592 522.828C355.217 507.498 336.164 491.97 316.146 478.844C313.014 476.791 310.069 476.131 306.596 475.436C314.821 486.317 321.525 490.93 332.205 499.359L357.313 519.35C362.17 523.219 383.89 539.798 380.866 546.974C379.717 546.651 378.204 545.819 377.331 545.02C365.947 534.597 353.778 525.286 341.85 515.504L242.336 434.303C233.335 426.938 224.409 419.542 215.125 412.532C212.549 410.588 209.471 408.405 207.389 406.003ZM505.725 515.309C500.881 528.169 477.129 558.816 468.651 570.958C437.387 615.738 403.828 659.35 371.349 703.284C366.368 710.022 361.192 716.593 356.08 723.16C353.133 726.945 343.955 737.778 342.394 741.619L342.714 741.739C383.616 691.709 421.153 637.065 460.199 585.441C464.816 579.337 468.837 572.456 473.454 566.317C479.505 557.256 503.199 526.503 506.382 516.862C506.158 515.659 506.462 516.116 505.725 515.309Z" fill="black"/>
<path d="M690.903 432.84C677.455 433.889 672.079 436.087 659.591 438.371C642.168 440.697 626.469 442.54 608.861 438.038C600.62 435.931 586.753 424.866 589.197 414.147C589.487 412.874 592.736 408.06 594.083 407.451C596.943 408.519 627.97 407.946 633.034 407.931L735.897 408.037C752.986 408.047 770.214 407.942 787.314 407.984C788.753 407.988 790.003 408.272 791.268 408.974L791.555 409.859C790.448 411.475 790.761 411.121 788.397 411.743C765.271 415.386 742.533 419.413 719.956 425.616C710.484 428.219 700.249 430.045 690.903 432.84Z" fill="black"/>
<path d="M279.849 413.35C283.491 413.059 287.177 412.937 290.83 412.865C311.06 412.469 331.378 412.034 351.606 412.01L351.627 412.863C345.549 413.053 333.608 412.432 328.28 413.111L328.06 413.477C334.68 416.01 350.719 411.648 359.67 415.885C353.433 416.394 347.22 416.453 340.991 416.808C326.785 417.617 312.66 416.352 298.422 416.253L298.256 416.589C299.146 417.326 299.484 417.468 300.511 418.023C293.377 417.861 287.196 417.205 280.19 416.09C279.586 414.884 279.75 414.745 279.849 413.35Z" fill="url(#paint2_linear_165_194)"/>
<path d="M690.903 432.84C700.249 430.045 710.484 428.219 719.956 425.616C742.533 419.413 765.271 415.386 788.397 411.743L789.311 412.256C788.135 413.451 782.759 415.045 780.84 415.752C761.041 422.256 741.17 429.986 721.463 436.821L583.478 484.021L542.943 497.906C539.582 499.033 525.737 503.626 522.656 503.912C520.108 504.051 519.965 504.004 517.809 505.236C516.915 505.089 517.291 505.297 516.688 504.601C518.606 500.342 532.627 485.542 535.419 479.851C539.57 480.564 544.094 477.986 548.121 476.564C575.102 467.034 603.302 459.735 630.557 451.164C645.005 446.62 679.256 440.716 690.903 432.84Z" fill="#F8F8F8"/>
<path d="M791.08 412.457L792.319 413.058C791.408 414.453 785.589 416.417 783.65 417.27C735.622 438.388 685.007 453.758 635.497 471.038C635.377 471.062 635.256 471.086 635.136 471.11C633.134 470.377 633.663 470.365 631.634 471.022C598.28 481.835 565.402 494.133 531.913 504.506C529.754 505.175 522.662 506.912 521.291 508.142C519.279 509.056 516.009 509.763 513.985 508.706C517.98 506.505 520.442 507.448 522.656 503.912C525.737 503.626 539.582 499.033 542.943 497.906L583.478 484.021L721.463 436.821C741.17 429.986 761.041 422.256 780.84 415.752L781.877 416.317C785.461 415.759 787.985 414.218 791.08 412.457Z" fill="url(#paint3_linear_165_194)"/>
<path d="M273.797 413.956C275.98 413.475 277.635 413.463 279.849 413.35C279.75 414.745 279.586 414.884 280.19 416.09C277.882 415.509 275.819 415.174 273.797 413.956Z" fill="#717174"/>
<path d="M268.034 419.452C268.846 419.344 269.664 419.215 270.475 419.095C271.537 417.066 269.429 417.299 270.184 414.873C271.64 414.124 272.201 414.152 273.797 413.956C275.819 415.174 277.882 415.509 280.19 416.09C287.196 417.205 293.377 417.861 300.511 418.023C315.302 418.959 430.499 421.211 435.774 416.676L437.143 418.367C431.9 423.039 430.4 425.554 427.372 431.974C426.58 429.389 429.325 424.85 430.695 422.622L429.508 422.209C426.062 427.479 420.808 436.367 418.799 442.208C415.552 451.652 414.883 456.671 410.321 465.816L410.489 466.35L412.122 466.684C413.109 465.704 412.793 466.125 413.325 464.795L413.964 464.329L414.405 464.695C413.987 466.343 413.515 467.051 413.877 468.688C401.169 464.148 388.129 460.369 375.244 455.805C347.61 446.015 318.961 435.85 290.904 427.39C285.421 425.068 273.671 421.185 268.034 419.452Z" fill="#373737"/>
<path d="M300.511 418.023C299.484 417.468 299.146 417.326 298.256 416.589L298.422 416.253C312.66 416.352 326.785 417.617 340.991 416.808C347.22 416.453 353.433 416.394 359.67 415.885C379.753 417.175 400.945 415.608 421.148 417.082C424.982 417.362 430.273 415.801 434.196 415.437C434.307 415.421 435.508 416.407 435.774 416.676C430.499 421.211 315.302 418.959 300.511 418.023Z" fill="#A0A0A1"/>
<path d="M240.437 417.937C249.736 417.585 259.117 416.617 268.034 419.452C273.671 421.185 285.421 425.068 290.904 427.39C280.739 428.457 262.798 419.893 251.239 419.733C249 419.702 249.477 419.72 247.988 421.206C245.95 420.547 242.499 418.866 240.437 417.937Z" fill="#E2E2E2"/>
<path d="M247.988 421.206C249.477 419.72 249 419.702 251.239 419.733C262.798 419.893 280.739 428.457 290.904 427.39C318.961 435.85 347.61 446.015 375.244 455.805C388.129 460.369 401.169 464.148 413.877 468.688C425.584 472.591 440.2 476.516 451.165 481.17C456.1 483.25 476.828 491.541 481.405 492.297C485.98 495.794 499.894 505.323 502.903 508.738C484.627 504.475 467.922 498.544 450.208 492.384L407.498 477.793L333.15 451.903C305.022 442.153 275.602 432.167 247.988 421.206Z" fill="#F8F8F8"/>
<path d="M512.967 422.87L513.885 422.799C513.906 425.27 514.007 428.009 513.797 430.449L513.165 430.959L513.353 431.466L513.712 431.183L513.01 429.544L513.068 429.828L512.967 422.87Z" fill="#373737"/>
<path d="M732.775 459.544L732.908 458.695C731.816 457.977 732.277 458.301 730.445 458.452C730.986 456.887 732.039 456.789 733.366 455.803C736.275 453.642 738.735 450.18 741.37 447.603C728.742 452.796 703.391 480.117 689.909 488.99C684.335 492.659 646.093 525.023 644.944 527.497C642.298 529.829 638.857 532.491 636.343 535.374C635.953 535.422 635.563 535.47 635.173 535.517L631.05 534.618C637.944 525.868 645.911 519.849 654.386 512.929L685.205 488.02C692.713 481.83 754.542 427.677 761.946 432.792C760.043 436.911 737.607 456.708 732.775 459.544Z" fill="#373737"/>
<path d="M732.775 459.544C717.794 471.413 703.345 483.573 688.573 495.632C674.371 507.225 659.828 518.248 645.792 530.146L645.925 528.664L644.944 527.497C646.093 525.023 684.335 492.659 689.909 488.99C703.391 480.117 728.742 452.796 741.37 447.603C738.735 450.18 736.275 453.642 733.366 455.803C732.039 456.789 730.986 456.887 730.445 458.452C732.277 458.301 731.816 457.977 732.908 458.695L732.775 459.544Z" fill="#E2E2E2"/>
<path d="M635.136 471.11C615.991 477.558 596.555 483.951 577.487 490.561C565.047 494.873 533.782 506.613 521.291 508.142C522.662 506.912 529.754 505.175 531.913 504.506C565.402 494.133 598.28 481.835 631.634 471.022C633.663 470.365 633.134 470.377 635.136 471.11Z" fill="#A0A0A1"/>
<path d="M510.618 507.384C515.707 506.822 532.074 480.885 535.419 479.851C532.627 485.542 518.606 500.342 516.688 504.601C517.291 505.297 516.915 505.089 517.809 505.236C517.127 506.39 513.452 507.483 511.563 508.528L510.987 508.408C509.873 509.333 509.711 509.715 508.404 510.042C508.715 508.782 509.6 508.264 510.618 507.384Z" fill="#605F62"/>
<path d="M451.165 481.17C450.906 481.231 454.047 480.439 453.355 480.477C461.582 480.032 475.714 486.6 481.405 492.297C476.828 491.541 456.1 483.25 451.165 481.17Z" fill="#373737"/>
<path d="M517.809 505.236C519.965 504.004 520.108 504.051 522.656 503.912C520.442 507.448 517.98 506.505 513.985 508.706C512.908 509.285 512.042 509.912 510.936 509.55L511.563 508.528C513.452 507.483 517.127 506.39 517.809 505.236Z" fill="#A0A0A1"/>
<path d="M514.469 513.529L511.914 512.248L512.18 511.994C527.072 515.024 543.198 520.515 557.012 524.388C566.226 526.971 619.335 544.231 623.757 543.003C625.976 541.042 629.381 537.075 631.05 534.618L635.173 535.517L634.602 536.281C632.218 539.434 629.524 542.732 626.193 544.85C628.227 545.184 630.171 545.466 632.216 545.732C631.354 547.492 627.911 546.675 626.135 546.504C627.166 549.22 628.338 547.504 628.958 552.647C630.035 553.749 630.47 554.436 631.963 554.769C630.494 559.187 630.85 560.43 631.767 564.881C629.058 567.628 628.399 569.942 628.569 573.831C629.303 590.577 646.731 621.469 645.24 636.409C642.768 631.663 640.236 624.401 638.418 619.222C630.498 596.665 620.665 579.653 626.845 555.275C624.613 551.7 623.931 550.092 622.32 546.146C614.328 542.432 589.371 535.456 579.606 532.415C562.197 527.688 537.065 518.344 520.237 515.116L514.469 513.529Z" fill="#C1C1C2"/>
<path d="M696.128 769.373L695.438 770.179C691.469 767.547 676.383 746.152 672.46 741.011C662.086 727.417 651.894 712.96 641.947 699.02C633.016 686.504 622.294 674.813 613.422 662.404C578.85 614.05 541.101 567.694 509.019 517.663C508.55 516.932 509.542 514.028 510.101 513.263L510.783 513.696C509.835 515.046 509.798 514.835 509.341 516.35C510.522 519.297 512.173 521.259 513.913 523.855C524.674 539.913 536.07 555.455 547.544 571.007L644.963 701.47C649.966 708.154 686.271 758.509 688.57 759.814L688.863 758.7C691.721 762.768 690.933 764.635 695.677 768.968L696.128 769.373Z" fill="#A0A0A1"/>
<path d="M514.469 513.529L520.237 515.116L519.218 516.094C516.979 515.237 515.973 515.134 513.568 514.724L514.469 513.529Z" fill="#373737"/>
<path d="M513.568 514.724C515.973 515.134 516.979 515.237 519.218 516.094C523.807 517.972 549.548 526.992 554.04 527.617C556.698 537.706 580.087 573.705 587.986 581.119C594.048 589.51 597.967 596.962 602.813 606.079C604.676 609.583 609.39 614.08 611.756 617.78C635.468 654.856 655.636 694.035 676.993 732.457C678.331 734.864 680.925 737.316 683.006 739.116C683.152 739.341 683.015 739.181 683.658 739.653L684.712 737.739C686.058 741.434 688.335 746.592 687.51 750.373L686.717 750.871C683.349 749.432 662.526 718.837 658.664 713.547L557.311 575.687C546.678 561.239 535.654 547.129 525.63 532.186C522.441 527.433 515.951 519.447 513.568 514.724Z" fill="#F8F8F8"/>
<path d="M520.237 515.116C537.065 518.344 562.197 527.688 579.606 532.415C574.917 535.617 566.243 531.976 561.055 530.408L562.085 536.205C559.704 532.213 558.451 528.803 554.04 527.617C549.548 526.992 523.807 517.972 519.218 516.094L520.237 515.116Z" fill="url(#paint4_linear_165_194)"/>
<path d="M342.714 741.739L342.394 741.619C343.955 737.778 353.133 726.945 356.08 723.16C361.192 716.593 366.368 710.022 371.349 703.284C403.828 659.35 437.387 615.738 468.651 570.958C477.129 558.816 500.881 528.169 505.725 515.309C506.462 516.116 506.158 515.659 506.382 516.862C503.199 526.503 479.505 557.256 473.454 566.317C468.837 572.456 464.816 579.337 460.199 585.441C421.153 637.065 383.616 691.709 342.714 741.739Z" fill="#A0A0A1"/>
<path d="M504.65 638.667C499.493 638.763 492.687 639.498 488.213 642.102C476.6 648.861 465.027 658.243 454.149 666.206L389.336 714.518C374.741 725.446 356.014 739.752 340.256 748.779C351.033 736.876 365.397 725.194 377.503 714.507C382.318 710.256 389.097 706.728 394.121 702.616C403.465 695.198 414.298 688.06 423.443 680.534C435.632 670.501 448.9 661.579 461.359 652.173C473.872 642.725 482.694 633.797 498.377 629.972C501.105 629.306 504.498 630.247 506.219 629.122C506.722 626.725 506.345 609.594 506.366 605.884L506.726 538.93C506.731 536.903 506.622 521.93 506.958 520.806C507.651 525.362 507.381 549.376 507.46 555.386L508.487 629.105C529.341 629.85 542.307 644.111 558.357 655.891C587.437 677.235 615.335 700.29 644.371 721.688C646.959 723.596 656.677 734.629 656.665 737.278C652.497 736.57 638.509 725.889 634.357 722.868C603.337 700.293 572.808 677.015 542.028 654.123C533.54 647.81 521.535 637.857 510.395 638.743L510.327 639.359L511.896 641.019L511.051 640.748C508.592 639.939 509.606 639.492 506.544 639.266L506.121 639.592C508.314 640.617 509.7 641.674 511.614 643.103L511.401 643.848C509.173 642.32 507.354 640.604 504.828 640.718L504.242 640.231L505.383 639.211L504.65 638.667Z" fill="#E2E2E2"/>
<path d="M554.04 527.617C558.451 528.803 559.704 532.213 562.085 536.205C569.34 547.739 584.235 569.079 587.986 581.119C580.087 573.705 556.698 537.706 554.04 527.617Z" fill="#A0A0A1"/>
<path d="M644.944 527.497L645.925 528.664L645.792 530.146C643.437 532.57 633.881 542.835 633.31 545.749C633.966 548.648 633.899 550.121 633.198 553.02L631.963 554.769C630.47 554.436 630.035 553.749 628.958 552.647C628.338 547.504 627.166 549.22 626.135 546.504C627.911 546.675 631.354 547.492 632.216 545.732C630.171 545.466 628.227 545.184 626.193 544.85C629.524 542.732 632.218 539.434 634.602 536.281L635.173 535.517C635.563 535.47 635.953 535.422 636.343 535.374C638.857 532.491 642.298 529.829 644.944 527.497Z" fill="#F8F8F8"/>
<path d="M561.055 530.408C566.243 531.976 574.917 535.617 579.606 532.415C589.371 535.456 614.328 542.432 622.32 546.146C623.931 550.092 624.613 551.7 626.845 555.275C620.665 579.653 630.498 596.665 638.418 619.222C640.236 624.401 642.768 631.663 645.24 636.409C655.297 663.985 665.056 691.628 675.777 718.954C678.39 725.615 680.766 732.321 683.006 739.116C680.925 737.316 678.331 734.864 676.993 732.457C655.636 694.035 635.468 654.856 611.756 617.78C609.39 614.08 604.676 609.583 602.813 606.079C597.967 596.962 594.048 589.51 587.986 581.119C584.235 569.079 569.34 547.739 562.085 536.205L561.055 530.408Z" fill="#373737"/>
<path d="M689.307 740.577C690.809 738.13 689.61 735.018 688.852 732.244C675.032 681.705 657.344 632.157 643.546 581.564C641.672 574.694 635.808 558.625 635.525 552.682C637.846 559.933 640.54 567.195 642.736 574.417C647.785 591.019 652.332 607.855 657.36 624.462L679.417 696.131C683.938 710.979 689.633 726.342 693.96 741.133L692.863 741.577C691.602 746.46 701.378 773.495 703.876 779.705C701.292 778.945 701.058 772.87 697.891 770.603C696.765 768.937 689.342 742.896 689.307 740.577Z" fill="#717174"/>
<path d="M376.465 555.431L382.648 553.642C376.868 566.368 373.954 577.36 369.947 590.738L357.472 632.153L326.303 736.975C323.673 745.886 320.414 754.824 317.907 763.767C315.737 765.758 315.34 768.134 315.093 770.987C314.267 772.096 314.252 772.44 312.995 772.831L312.204 772.365C311.783 769.411 313.958 768.568 312.706 766.562C314.236 759.457 318.976 746.458 321.114 738.606C329.422 708.103 339.303 677.796 348.37 647.467L367.115 584.52C368.871 578.662 374.052 560.043 376.465 555.431Z" fill="url(#paint5_linear_165_194)"/>
<path d="M645.24 636.409C646.731 621.469 629.303 590.577 628.569 573.831C628.399 569.942 629.058 567.628 631.767 564.881C635.522 580.379 640.695 595.707 644.984 611.087C649.66 627.849 655.016 644.57 660.422 661.115C668.746 686.587 675.966 712.402 684.712 737.739L683.658 739.653C683.015 739.181 683.152 739.341 683.006 739.116C680.766 732.321 678.39 725.615 675.777 718.954C665.056 691.628 655.297 663.985 645.24 636.409Z" fill="#E2E2E2"/>
<path d="M504.65 638.667L505.383 639.211L504.242 640.231L504.828 640.718C503.822 642.435 503.743 642.435 502.28 643.848L502.111 644.94C490.396 655.234 474.155 666.423 461.548 675.635L400.41 720.816C380.48 735.694 360.851 751.12 340.814 765.781C337.238 768.398 325.786 776.802 322.429 778.672C320.788 777.001 313.701 786.838 309.744 782.649C308.969 779.692 310.652 779.512 309.756 776.991C310.435 773.908 311.801 769.681 312.706 766.562C313.958 768.568 311.783 769.411 312.204 772.365L312.995 772.831C314.252 772.44 314.267 772.096 315.093 770.987C315.34 768.134 315.737 765.758 317.907 763.767L314.432 777.403C318.603 774.91 325.219 769.578 329.562 766.479L361.795 743.433L462.517 669.245C476.833 658.768 489.88 648.719 504.65 638.667Z" fill="url(#paint6_linear_165_194)"/>
<path d="M511.896 641.019C515.837 642.322 541.592 662.222 547.595 666.561C586.845 694.927 625.534 725.568 665.808 752.514C676.964 759.978 688.172 768.897 698.687 775.574C697.85 774.097 696.435 771.414 695.438 770.179L696.128 769.373L697.891 770.603C701.058 772.87 701.292 778.945 703.876 779.705C704.232 780.666 704.451 781.073 704.626 782.075C702.884 780.97 700.285 778.758 698.348 777.4L681.445 765.763C667.783 756.451 653.863 747.659 640.139 738.287C634.123 733.716 627.839 730.042 621.845 725.562L511.401 643.848L511.614 643.103C509.7 641.674 508.314 640.617 506.121 639.592L506.544 639.266C509.606 639.492 508.592 639.939 511.051 640.748L511.896 641.019Z" fill="#C1C1C2"/>
<path d="M504.828 640.718C507.354 640.604 509.173 642.32 511.401 643.848L621.845 725.562C627.839 730.042 634.123 733.716 640.139 738.287L639.175 739.17C622.174 727.982 604.334 713.155 587.798 701.142C560.621 681.399 533.572 661.335 506.333 641.676L502.111 644.94L502.28 643.848C503.743 642.435 503.822 642.435 504.828 640.718Z" fill="#605F62"/>
<path d="M639.175 739.17L640.139 738.287C653.863 747.659 667.783 756.451 681.445 765.763L698.348 777.4C700.285 778.758 702.884 780.97 704.626 782.075L704.82 782.067C705.863 780.58 694.888 750.866 694.9 745.168C696.877 752.404 706.274 782.424 708.881 787.503C688.097 771.286 661.196 754.2 639.175 739.17Z" fill="#373737"/>
<path d="M333.772 745.336L336.495 738.535L337.547 739.504C336.643 742.027 335.719 743.557 333.772 745.336Z" fill="#C1C1C2"/>
<path d="M693.96 741.133C694.561 742.745 694.952 743.431 694.9 745.168C694.888 750.866 705.863 780.58 704.82 782.067L704.626 782.075C704.451 781.073 704.232 780.666 703.876 779.705C701.378 773.495 691.602 746.46 692.863 741.577L693.96 741.133Z" fill="#C1C1C2"/>
<path d="M309.756 776.991C310.652 779.512 308.969 779.692 309.744 782.649C313.701 786.838 320.788 777.001 322.429 778.672C320.303 781.083 308.696 789.117 305.335 791.687C306.328 787.224 308.339 781.45 309.756 776.991Z" fill="#717174"/>
</g>
<defs>
<linearGradient id="paint0_linear_165_194" x1="410.295" y1="344.088" x2="577.511" y2="344.554" gradientUnits="userSpaceOnUse">
<stop/>
<stop offset="1" stop-color="#272727"/>
</linearGradient>
<linearGradient id="paint1_linear_165_194" x1="291.369" y1="402.146" x2="291.382" y2="405.457" gradientUnits="userSpaceOnUse">
<stop stop-color="#949191"/>
<stop offset="1" stop-color="#B4B4B5"/>
</linearGradient>
<linearGradient id="paint2_linear_165_194" x1="300.617" y1="423.637" x2="309.08" y2="404.837" gradientUnits="userSpaceOnUse">
<stop stop-color="#999896"/>
<stop offset="1" stop-color="#D6D4DA"/>
</linearGradient>
<linearGradient id="paint3_linear_165_194" x1="650.566" y1="460.69" x2="651.897" y2="464.587" gradientUnits="userSpaceOnUse">
<stop stop-color="#504F50"/>
<stop offset="1" stop-color="#68686A"/>
</linearGradient>
<linearGradient id="paint4_linear_165_194" x1="575.698" y1="537.824" x2="522.374" y2="510.531" gradientUnits="userSpaceOnUse">
<stop stop-color="#504E4F"/>
<stop offset="1" stop-color="#737274"/>
</linearGradient>
<linearGradient id="paint5_linear_165_194" x1="276.929" y1="697.173" x2="413.088" y2="633.818" gradientUnits="userSpaceOnUse">
<stop stop-color="#989591"/>
<stop offset="1" stop-color="#AFB1B6"/>
</linearGradient>
<linearGradient id="paint6_linear_165_194" x1="394.992" y1="698.645" x2="415.501" y2="721.595" gradientUnits="userSpaceOnUse">
<stop stop-color="#807D7F"/>
<stop offset="1" stop-color="#B0B0B0"/>
</linearGradient>
<clipPath id="clip0_165_194">
<rect width="1014" height="1014" fill="white"/>
</clipPath>
</defs>
</svg>
