<svg width="586" height="154" viewBox="0 0 586 154" fill="none" xmlns="http://www.w3.org/2000/svg">
<path d="M26.4533 139.173C12.6933 139.173 3.84 133.84 3.84 118.267V103.867H22.1867V118.16C22.1867 122.107 23.8933 123.28 26.3467 123.28C28.6933 123.28 30.4 122.107 30.4 118.16V104.827C30.4 92.7733 3.73333 99.0667 3.73333 74.1067V59.6C3.73333 44.0267 12.6933 38.6933 26.3467 38.6933C40.1067 38.6933 48.8533 44.0267 48.8533 59.6V74H30.5067V59.7067C30.5067 55.76 28.8 54.5867 26.4533 54.5867C24.1067 54.5867 22.4 55.76 22.4 59.7067V73.04C22.4 85.0933 49.1733 78.8 49.1733 103.76V118.267C49.1733 133.84 40.2133 139.173 26.4533 139.173ZM97.15 39.8667V55.8667H84.5633V138H65.47V55.8667H52.8833V39.8667H97.15ZM129.035 138L127.542 121.147H114.955L113.462 138H95.0083L104.715 39.8667H137.782L147.488 138H129.035ZM116.235 105.147H126.262L122.102 57.1467H120.395L116.235 105.147ZM200.718 138H183.758L177.465 109.307H175.332H171.918V138H152.825V39.8667H179.918C195.598 39.8667 198.798 45.7333 198.798 60.88V89.4667C198.798 96.5067 196.558 101.307 192.825 104.4L200.718 138ZM171.918 95.76H175.438C179.065 95.76 180.132 94.48 180.132 90.5333V60.9867C180.132 57.04 179.065 55.76 175.438 55.76H171.918V95.76Z" fill="black"/>
<path d="M391.347 139.173C377.48 139.173 368.2 133.84 368.2 118.053V59.8133C368.2 44.0267 377.48 38.6933 391.347 38.6933C405.213 38.6933 414.493 44.0267 414.493 59.8133V76.9867H395.4V59.8133C395.4 55.8667 393.587 54.6933 391.347 54.6933C389.107 54.6933 387.293 55.8667 387.293 59.8133V118.053C387.293 122 389 123.387 391.987 123.387C395.08 123.387 396.68 122 396.68 118.053L396.787 98H391.88V83.7067H414.493V118.053C414.493 133.84 405.213 139.173 391.347 139.173ZM451.785 138L450.292 121.147H437.705L436.212 138H417.758L427.465 39.8667H460.532L470.238 138H451.785ZM438.985 105.147H449.012L444.852 57.1467H443.145L438.985 105.147ZM475.575 138V39.8667H499.788L511.095 106.533H512.268L511.735 93.52V39.8667H529.335V138H505.122L493.815 71.3333H492.642L493.175 84.3467V138H475.575ZM558.847 139.173C544.98 139.173 535.7 133.84 535.7 118.053V59.8133C535.7 44.0267 544.98 38.6933 558.847 38.6933C572.713 38.6933 581.993 44.0267 581.993 59.8133V76.9867H562.9V59.8133C562.9 55.8667 561.087 54.6933 558.847 54.6933C556.607 54.6933 554.793 55.8667 554.793 59.8133V118.053C554.793 122 556.5 123.387 559.487 123.387C562.58 123.387 564.18 122 564.18 118.053L564.287 98H559.38V83.7067H581.993V118.053C581.993 133.84 572.713 139.173 558.847 139.173Z" fill="black"/>
<path d="M284 30L297.471 72.8409H341.063L305.796 99.3181L319.267 142.159L284 115.682L248.733 142.159L262.204 99.3181L226.937 72.8409H270.529L284 30Z" fill="black"/>
</svg>
